# xmcd CD database file
#
# Track frame offsets:
#	150
#	20835
#	37812
#	48830
#	65217
#	84712
#	100242
#	113805
#	132330
#	152662
#
# Disc length: 2299 seconds
#
# Revision: 0
# Processed by: cddbd v1.5.2PL0 Copyright (c) Steve Scherf et al.
# Submitted via: CDex 1.70beta2
#
DISCID=8208f90a
DTITLE=Tito Puente - Legends of Salsa Collection Vol. 3
DYEAR=1900
DGENRE=Salsa
TTITLE0=Oye Como Va
TTITLE1=Barabatiri
TTITLE2=Kwa Kwa
TTITLE3=Mirame Mas
TTITLE4=Que Te Pedi
TTITLE5=Ban Ban Quere
TTITLE6=Mi Bomba Sono
TTITLE7=Ay Carińo
TTITLE8=Fiesta A La King
TTITLE9=Nińa Y Seńora
EXTD=
EXTT0=
EXTT1=
EXTT2=
EXTT3=
EXTT4=
EXTT5=
EXTT6=
EXTT7=
EXTT8=
EXTT9=
PLAYORDER=
